# xmcd
#
# Track frame offsets:
#	150
#	13736
#	33001
#	57103
#	74119
#	90469
#	110726
#	129991
#	147499
#
# Disc length: 2318 seconds
#
# Revision: 1
# Processed by: cddbd v1.5.2PL0 Copyright (c) Steve Scherf et al.
# Submitted via: audiograbber 1.83.01
#
DISCID=7c090c09
DTITLE=Lydia Loveless - Indestructible Machine
DYEAR=2011
DGENRE=Country
TTITLE0=Bad Way To Go
TTITLE1=Can't Change Me
TTITLE2=More Like Them
TTITLE3=How Many Women
TTITLE4=Jesus Was A Wino
TTITLE5=Steve Earle
TTITLE6=Learn To Say No
TTITLE7=Do Right
TTITLE8=Crazy
EXTD=
EXTT0=
EXTT1=
EXTT2=
EXTT3=
EXTT4=
EXTT5=
EXTT6=
EXTT7=
EXTT8=
PLAYORDER=
